<?xml version="1.0" encoding="utf-8"?>
<!-- Generator: Adobe Illustrator 24.0.2, SVG Export Plug-In . SVG Version: 6.00 Build 0)  -->
<svg version="1.1" xmlns="http://www.w3.org/2000/svg" xmlns:xlink="http://www.w3.org/1999/xlink" x="0px" y="0px"
	 viewBox="0 0 1607.76 272.64" style="enable-background:new 0 0 1607.76 272.64;" xml:space="preserve">
<style type="text/css">
	.st0{enable-background:new    ;}
</style>
<g id="Layer_1_xA0_Image_1_">
	<g>
		<path d="M654.99,204.48c-0.24-0.86-0.68-1.72-0.68-2.59c-0.04-14.94-0.04-29.87-0.03-44.81c0.02-14.02,0.07-28.03,0.07-42.05
			c0-0.82-0.12-1.96-0.64-2.39c-0.82-0.67-1.68,0.27-2.42,0.76c-23.97,15.54-47.93,31.08-71.9,46.63
			c-19.85,12.87-39.7,25.75-59.55,38.62c-3.09,2-6.46,2.97-10.17,2.96c-29.07-0.03-58.14-0.01-87.21-0.02
			c-5.31,0-8.92-2.95-9.93-8.15c-0.18-0.93-0.13-1.91-0.13-2.86c-0.01-35.7,0-71.41-0.03-107.11c0-0.78-0.36-1.56-0.56-2.35
			c-0.8,0.23-1.7,0.3-2.4,0.72c-28.61,17.13-57.2,34.29-85.79,51.44c-0.24,0.14-0.48,0.28-0.71,0.44c-1.25,0.86-1.33,1.51-0.34,2.62
			c0.24,0.27,0.5,0.51,0.76,0.77c20.38,20.36,40.77,40.72,61.15,61.09c0.48,0.48,0.98,0.96,1.35,1.52c0.58,0.87,0.3,1.52-0.71,1.78
			c-0.38,0.1-0.79,0.09-1.19,0.09c-18.91,0-37.83,0.02-56.74-0.03c-1.77,0-3.56-0.35-5.31-0.7c-1.89-0.38-3.36-1.55-4.71-2.9
			c-12.15-12.15-24.31-24.29-36.47-36.44c-1.5-1.5-1.61-1.52-3.47-0.4c-20.66,12.4-41.32,24.77-61.95,37.21
			c-3.66,2.2-7.47,3.32-11.78,3.3c-18.87-0.09-37.74-0.04-56.62-0.04c-6.42,0-10.36-3.96-10.36-10.38c0-25.12-0.03-50.24,0.03-75.36
			c0.01-4.26,0.7-8.41,3.33-12c1.71-2.33,3.91-4.09,6.35-5.56c16.13-9.7,32.27-19.39,48.41-29.07c0.27-0.16,0.55-0.33,0.84-0.45
			c1.11-0.45,1.77-0.08,1.93,1.11c0.06,0.43,0.02,0.88,0.02,1.32c0,32.63,0,65.26,0.03,97.89c0,0.85,0.4,1.7,0.61,2.54
			c0.8-0.27,1.68-0.42,2.38-0.84c29.86-17.9,59.71-35.82,89.56-53.74c24.38-14.64,48.77-29.26,73.13-43.93
			c3.52-2.12,7.2-3.15,11.34-3.14c29.15,0.07,58.3,0.04,87.45,0.03c3.63,0,6.66,1.13,8.74,4.23c1.22,1.81,1.59,3.87,1.59,6.03
			c0,31.31,0,62.62,0,93.93c0,4.63-0.03,9.27,0.03,13.9c0.01,0.81,0.4,1.62,0.61,2.43c0.79-0.27,1.69-0.39,2.37-0.83
			c36.53-23.66,73.05-47.35,109.56-71.04c23.36-15.15,46.74-30.29,70.09-45.46c3.31-2.15,6.85-3.23,10.82-3.21
			c13.11,0.07,26.23,0.02,39.34,0.03c4.91,0,8.4,2.4,9.64,6.66c0.29,1.02,0.44,2.11,0.44,3.17c0.02,25.76,0.02,51.52,0.01,77.28
			c0,4.2-0.66,8.25-3.14,11.81c-1.68,2.4-3.9,4.22-6.38,5.71c-14.25,8.58-28.52,17.13-42.78,25.69c-2.32,1.39-4.65,2.76-6.98,4.14
			C655.63,204.48,655.31,204.48,654.99,204.48z"/>
	</g>
</g>
<g id="Đorđević_Auto_1_" class="st0">
	<g id="Đorđević_Auto">
		<g>
			<path d="M881.08,137.63h-23.02v28.19h-6.3v9.16h6.3v28.97h23.02c19.61,0,32.56-12.48,32.56-32.64v-1.66
				C913.64,149.85,900.69,137.63,881.08,137.63z M900.86,171.31c0,16.76-10.5,23.13-20.39,23.13h-10.59v-19.46h11.73v-9.16h-11.73
				v-18.68h10.59c9.89,0,20.39,6.02,20.39,22.52V171.31z M945.06,154.21c-13.92,0-23.98,10.56-23.98,24.35v1.48
				c0,13.88,10.07,24.44,23.98,24.44c13.92,0,23.98-10.38,23.98-24.44v-1.48C969.05,164.77,958.98,154.21,945.06,154.21z
				 M957.32,180.04c0,8.64-4.2,15.8-12.25,15.8c-7.96,0-12.25-7.16-12.25-15.8v-1.48c0-8.55,4.29-15.71,12.25-15.71
				c8.05,0,12.25,7.16,12.25,15.71V180.04z M990.23,163.37l-0.53-7.85h-10.59v47.65h11.29v-28.8c1.66-6.46,7.44-10.38,13.74-10.38
				c1.58,0,2.98,0.26,4.2,0.7v-10.04c-0.88-0.26-2.63-0.44-3.76-0.44C997.75,154.21,992.24,157.88,990.23,163.37z M1060.16,136.32
				h-11.29v6.37h-9.1v7.42h9.1v10.47c-3.33-3.93-8.58-6.37-14.27-6.37c-11.55,0-21.44,9.51-21.44,25.13s9.89,25.13,21.44,25.13
				c6.13,0,11.47-3.05,14.27-7.07l0.7,5.76h10.59v-53.06h6.56v-7.42h-6.56V136.32z M1048.87,188.24c-2.28,4.63-6.91,7.59-11.64,7.59
				c-6.13,0-12.34-5.24-12.34-16.49c0-11.26,6.65-16.49,12.52-16.49c4.73,0,9.19,2.71,11.47,7.59V188.24z M1092.37,154.21
				c-13.48,0-22.58,10.21-22.58,24.17v1.75c0,14.14,8.4,24.35,24.24,24.35c6.65,0,12.78-1.92,16.98-5.15v-10.73
				c-5.43,5.5-10.85,7.33-16.98,7.24c-7.79-0.09-12.34-4.8-13.13-12.57h33.35v-4.36C1114.25,163.72,1106.37,154.21,1092.37,154.21z
				 M1080.99,174.72c0.44-7.33,5.34-11.96,11.12-12.04c6.56-0.09,10.94,4.36,10.94,12.04H1080.99z M1143.74,191.39l-12.6-35.87
				h-12.08l18.03,47.65h11.9l18.12-47.65h-10.68L1143.74,191.39z M1174.99,148.28h11.29v-11.96h-11.29V148.28z M1174.99,203.17
				h11.29v-47.65h-11.29V203.17z M1214.11,149.06h9.63l13.13-12.22h-15.93L1214.11,149.06z M1196.35,178.47v1.83
				c0,13.09,10.07,24.17,25.03,24.17c6.48,0,11.29-2.09,14.18-4.36v-11.17c-3.76,4.36-8.23,6.55-13.04,6.55
				c-7.35,0-14.35-6.37-14.35-15.27v-1.75c0-9.34,6.65-15.36,14.35-15.36c4.81,0,9.8,2.09,13.04,6.81V158.4
				c-3.15-2.27-7.96-4.19-13.83-4.19C1206.15,154.21,1196.35,165.38,1196.35,178.47z M1290.26,136.84l-25.38,66.32h11.55l6.74-18.06
				h26.08l6.74,18.06h12.78l-25.47-66.32H1290.26z M1286.67,175.59l9.54-25.66l9.54,25.66H1286.67z M1367.81,184.58
				c-1.93,6.11-7.61,11.17-13.39,11.17c-5.6,0-7.35-4.01-7.35-9.08v-31.15h-11.29v31.15c0,11.52,6.3,17.8,16.8,17.8
				c6.91,0,12.25-4.19,15.23-8.2l0.7,6.89h10.59v-47.65h-11.29V184.58z M1408.59,141.03h-11.29v14.49h-10.33v8.64h10.33v39.01h11.29
				v-39.01h10.59v-8.64h-10.59V141.03z M1447.46,154.21c-13.92,0-23.98,10.56-23.98,24.35v1.48c0,13.88,10.07,24.44,23.98,24.44
				c13.92,0,23.98-10.38,23.98-24.44v-1.48C1471.44,164.77,1461.37,154.21,1447.46,154.21z M1459.71,180.04
				c0,8.64-4.2,15.8-12.25,15.8c-7.96,0-12.25-7.16-12.25-15.8v-1.48c0-8.55,4.29-15.71,12.25-15.71c8.05,0,12.25,7.16,12.25,15.71
				V180.04z"/>
		</g>
	</g>
</g>
</svg>
